<svg width="20" height="20" viewBox="0 0 20 20" fill="none" xmlns="http://www.w3.org/2000/svg">
<path d="M10.5772 10.0763C11.8517 10.0763 12.8849 9.04313 12.8849 7.76863C12.8849 6.49413 11.8517 5.46094 10.5772 5.46094C9.30272 5.46094 8.26953 6.49413 8.26953 7.76863C8.26953 9.04313 9.30272 10.0763 10.5772 10.0763Z" stroke="#949DA9" stroke-width="1.5" stroke-linecap="round" stroke-linejoin="round"/>
<path d="M2.5 5.46154H3.65385V4.30769C3.65385 3.69565 3.89698 3.10868 4.32975 2.67591C4.76253 2.24313 5.3495 2 5.96154 2H15.1923C15.8043 2 16.3913 2.24313 16.8241 2.67591C17.2569 3.10868 17.5 3.69565 17.5 4.30769V15.8462C17.5 16.4582 17.2569 17.0452 16.8241 17.4779C16.3913 17.9107 15.8043 18.1538 15.1923 18.1538H5.96154C5.3495 18.1538 4.76253 17.9107 4.32975 17.4779C3.89698 17.0452 3.65385 16.4582 3.65385 15.8462V14.6923H2.5M2.5 10.0769H3.65385M2.5 7.76923H3.65385M2.5 12.3846H3.65385" stroke="#949DA9" stroke-width="1.5" stroke-linecap="round" stroke-linejoin="round"/>
<path fill-rule="evenodd" clip-rule="evenodd" d="M14.0403 13.5377V12.3839C14.0403 11.7718 13.7971 11.1849 13.3644 10.7521C12.9316 10.3193 12.3446 10.0762 11.7326 10.0762H9.42488C8.81284 10.0762 8.22587 10.3193 7.79309 10.7521C7.36032 11.1849 7.11719 11.7718 7.11719 12.3839V13.5377C7.11719 13.8437 7.23875 14.1372 7.45514 14.3536C7.67153 14.57 7.96501 14.6916 8.27103 14.6916H12.8864C13.1924 14.6916 13.4859 14.57 13.7023 14.3536C13.9187 14.1372 14.0403 13.8437 14.0403 13.5377Z" stroke="#949DA9" stroke-width="1.5" stroke-linecap="round" stroke-linejoin="round"/>
</svg>
