<svg width="20" height="20" viewBox="0 0 20 20" fill="none" xmlns="http://www.w3.org/2000/svg">
<path d="M7.5 15.5V10.5C7.5 10.279 7.4122 10.067 7.25592 9.91074C7.09964 9.75446 6.88768 9.66667 6.66667 9.66667H3.33333C3.11232 9.66667 2.90036 9.75446 2.74408 9.91074C2.5878 10.067 2.5 10.279 2.5 10.5V15.5C2.5 15.721 2.5878 15.933 2.74408 16.0893C2.90036 16.2455 3.11232 16.3333 3.33333 16.3333M7.5 15.5C7.5 15.721 7.4122 15.933 7.25592 16.0893C7.09964 16.2455 6.88768 16.3333 6.66667 16.3333H3.33333M7.5 15.5C7.5 15.721 7.5878 15.933 7.74408 16.0893C7.90036 16.2455 8.11232 16.3333 8.33333 16.3333H11.6667C11.8877 16.3333 12.0996 16.2455 12.2559 16.0893C12.4122 15.933 12.5 15.721 12.5 15.5M7.5 15.5V3.83333C7.5 3.61232 7.5878 3.40036 7.74408 3.24408C7.90036 3.0878 8.11232 3 8.33333 3H11.6667C11.8877 3 12.0996 3.0878 12.2559 3.24408C12.4122 3.40036 12.5 3.61232 12.5 3.83333V15.5M3.33333 16.3333H15M12.5 15.5C12.5 15.721 12.5878 15.933 12.7441 16.0893C12.9004 16.2455 13.1123 16.3333 13.3333 16.3333H16.6667C16.8877 16.3333 17.0996 16.2455 17.2559 16.0893C17.4122 15.933 17.5 15.721 17.5 15.5V7.16667C17.5 6.94565 17.4122 6.73369 17.2559 6.57741C17.0996 6.42113 16.8877 6.33333 16.6667 6.33333H13.3333C13.1123 6.33333 12.9004 6.42113 12.7441 6.57741C12.5878 6.73369 12.5 6.94565 12.5 7.16667V15.5Z" stroke="#0249AA" stroke-width="1.5" stroke-linecap="round" stroke-linejoin="round"/>
</svg>
