<svg width="20" height="20" viewBox="0 0 20 20" fill="none" xmlns="http://www.w3.org/2000/svg">
<path d="M16.5729 10.4428L17.7029 11.449C17.9115 11.6231 18.051 11.8662 18.0959 12.1343C18.1409 12.4023 18.0883 12.6776 17.9479 12.9103L16.5854 15.2378C16.4797 15.4159 16.3287 15.563 16.1479 15.664C15.9649 15.7652 15.7595 15.819 15.5504 15.8203C15.4207 15.8211 15.2916 15.8017 15.1679 15.7628L13.7216 15.2853C13.4683 15.4478 13.205 15.5932 12.9316 15.7215L12.6279 17.1878C12.5717 17.4575 12.4215 17.6985 12.2041 17.8678C11.984 18.0401 11.7111 18.131 11.4316 18.1253H8.61037C8.33089 18.131 8.05799 18.0401 7.83787 17.8678C7.62097 17.6983 7.47125 17.4573 7.41537 17.1878L7.11037 15.7215C6.84062 15.5915 6.5789 15.4454 6.32662 15.284L4.87537 15.7628C4.75163 15.8017 4.62258 15.8211 4.49287 15.8203C4.28419 15.8188 4.07921 15.765 3.89662 15.664C3.71592 15.5633 3.565 15.4167 3.45912 15.239L2.04787 12.9103C1.90116 12.6755 1.8451 12.3953 1.8902 12.1221C1.9353 11.849 2.07847 11.6017 2.29287 11.4265L3.42162 10.0003V9.55776L2.29162 8.55151C2.08295 8.37738 1.94352 8.13429 1.89858 7.86624C1.85364 7.5982 1.90616 7.32293 2.04662 7.09026L3.45787 4.76276C3.56358 4.58459 3.71451 4.43754 3.89537 4.33651C4.07796 4.23547 4.28294 4.18176 4.49162 4.18026C4.62016 4.17215 4.74919 4.18396 4.87412 4.21526L6.29662 4.71526C6.55079 4.55276 6.81412 4.40734 7.08662 4.27901L7.39162 2.81276C7.4475 2.54322 7.59722 2.30225 7.81412 2.13276C8.03424 1.96044 8.30714 1.86948 8.58662 1.87526H11.3841C11.6636 1.86948 11.9365 1.96044 12.1566 2.13276C12.3754 2.30401 12.5254 2.54526 12.5791 2.81276L12.8841 4.27901C13.155 4.40818 13.4162 4.55401 13.6679 4.71651L15.1204 4.23901C15.2816 4.18657 15.4519 4.16816 15.6206 4.18494C15.7893 4.20172 15.9527 4.25333 16.1004 4.33651C16.2816 4.43901 16.4316 4.58651 16.5379 4.76151L17.9479 7.09026C18.0966 7.32304 18.1555 7.60196 18.1136 7.87499C18.0717 8.14801 17.932 8.39647 17.7204 8.57401L16.5729 9.55151V10.4428Z" stroke="#949DA9" stroke-width="1.5"/>
<path d="M13.125 10C13.125 10.8288 12.7958 11.6237 12.2097 12.2097C11.6237 12.7958 10.8288 13.125 10 13.125C9.1712 13.125 8.37634 12.7958 7.79029 12.2097C7.20424 11.6237 6.875 10.8288 6.875 10C6.875 9.1712 7.20424 8.37634 7.79029 7.79029C8.37634 7.20424 9.1712 6.875 10 6.875C10.8288 6.875 11.6237 7.20424 12.2097 7.79029C12.7958 8.37634 13.125 9.1712 13.125 10Z" stroke="#949DA9" stroke-width="1.5"/>
</svg>
